<?xml version="1.0" encoding="UTF-8" standalone="no"?>
<!-- Created with Inkscape (http://www.inkscape.org/) -->

<svg
   width="210mm"
   height="297mm"
   viewBox="0 0 210 297"
   version="1.1"
   id="svg1"
   xml:space="preserve"
   inkscape:export-filename="lilly.svg"
   inkscape:export-xdpi="96"
   inkscape:export-ydpi="96"
   xmlns:inkscape="http://www.inkscape.org/namespaces/inkscape"
   xmlns:sodipodi="http://sodipodi.sourceforge.net/DTD/sodipodi-0.dtd"
   xmlns="http://www.w3.org/2000/svg"
   xmlns:svg="http://www.w3.org/2000/svg"><sodipodi:namedview
     id="namedview1"
     pagecolor="#ffffff"
     bordercolor="#000000"
     borderopacity="0.25"
     inkscape:showpageshadow="2"
     inkscape:pageopacity="0.0"
     inkscape:pagecheckerboard="0"
     inkscape:deskcolor="#d1d1d1"
     inkscape:document-units="mm" /><defs
     id="defs1" /><g
     inkscape:label="Capa 1"
     inkscape:groupmode="layer"
     id="layer1"><path
       style="fill:#000000"
       d="m 90.651373,152.66314 c -0.08915,-0.0931 -1.220247,-0.28284 -2.513541,-0.42172 -2.469711,-0.26521 -4.974255,-0.92968 -5.67957,-1.50684 -0.22974,-0.18799 -0.551134,-0.34181 -0.71421,-0.34181 -0.440155,0 -2.565705,-2.12866 -3.038252,-3.04271 -1.119919,-2.16624 -1.299975,-3.19987 -1.163395,-6.67859 0.164559,-4.19134 1.240106,-11.75485 1.796865,-12.63599 0.09195,-0.14552 0.256606,-0.68082 0.365904,-1.18956 0.109298,-0.50874 0.351492,-1.28265 0.538208,-1.71979 0.186717,-0.43715 0.544818,-1.27106 0.795781,-1.85315 0.250964,-0.58208 0.857148,-1.66738 1.347076,-2.41178 0.959896,-1.45846 4.699124,-5.39343 5.125141,-5.39343 0.14266,0 0.259382,-0.0939 0.259382,-0.20868 0,-0.23297 2.394198,-1.73104 3.910683,-2.44694 1.82772,-0.86283 3.584474,-1.31313 5.122973,-1.31313 1.318486,0 1.574585,-0.0827 1.84456,-0.59531 0.172426,-0.32742 0.444506,-0.68278 0.604622,-0.7897 0.414533,-0.27679 1.68676,-0.24833 1.86604,0.0417 0.083,0.13433 0.50676,0.32238 0.94166,0.4179 0.43489,0.0955 0.79071,0.27162 0.79071,0.39135 0,0.11972 0.35719,0.34219 0.79375,0.49438 0.56268,0.19615 0.79375,0.19354 0.79375,-0.009 0,-0.49249 1.99142,-0.0549 2.79363,0.61383 1.80366,1.50362 5.14387,5.14014 5.14387,5.60018 0,0.15707 0.50602,-0.29537 1.12448,-1.00542 0.61846,-0.71006 1.33284,-1.50668 1.5875,-1.77029 0.25466,-0.2636 0.46302,-0.59834 0.46302,-0.74386 0,-0.14552 0.0961,-0.26459 0.21365,-0.26459 0.11751,0 0.59131,-0.53578 1.05288,-1.19062 0.79588,-1.12912 0.90443,-1.19041 2.10146,-1.1864 1.00039,0.003 1.42797,0.15428 2.06128,0.7276 1.23931,1.12193 1.71448,2.04781 1.71448,3.3407 0,0.96043 -0.13007,1.28305 -0.69714,1.7291 -0.38343,0.30161 -0.79344,0.54837 -0.91113,0.54837 -0.32074,0 -5.24565,2.9201 -5.43117,3.22027 -0.0883,0.14292 0.0604,0.4718 0.33057,0.73086 0.77892,0.74696 1.60469,1.76455 2.36827,2.91839 0.38871,0.58739 0.80999,1.06798 0.93618,1.06798 0.12618,0 0.22942,0.17009 0.22942,0.37798 0,0.20789 0.17988,0.55786 0.39974,0.77771 0.21986,0.21986 0.4766,0.96049 0.57054,1.64585 0.13765,1.00426 0.0827,1.31054 -0.28328,1.57813 -0.28889,0.21124 -0.35207,0.39508 -0.17367,0.50534 0.15423,0.0953 0.28115,0.37464 0.28205,0.62071 9e-4,0.24608 0.17949,0.78844 0.39688,1.20526 0.76611,1.46895 0.27902,3.60777 -0.82162,3.60777 -0.13704,0 -0.52643,0.89325 -0.86533,1.98499 -0.33889,1.09175 -0.72341,2.05128 -0.85449,2.13229 -0.13108,0.081 -0.23832,0.32394 -0.23832,0.53984 0,1.00101 -3.32883,4.78219 -5.97408,6.78591 -1.39819,1.05908 -2.07766,1.48455 -4.08009,2.55485 -1.99688,1.06734 -3.55868,1.48133 -7.67291,2.03389 -3.250305,0.43653 -9.320441,0.77076 -9.554807,0.5261 z m 8.029654,-1.99268 c 0.620552,-0.13832 1.842653,-0.36741 2.715773,-0.50908 2.1936,-0.35595 3.56436,-0.69166 4.49792,-1.10159 1.18083,-0.51851 4.89479,-2.95266 4.89479,-3.20808 0,-0.12179 0.16623,-0.22144 0.36939,-0.22144 0.5206,0 4.15305,-3.92677 4.78999,-5.1781 0.29104,-0.57178 0.60014,-1.09914 0.68689,-1.1719 0.0868,-0.0728 0.41488,-0.95826 0.72917,-1.96779 0.44613,-1.43296 0.49858,-1.88091 0.23915,-2.04258 -0.20807,-0.12968 -0.38952,-0.037 -0.48537,0.24799 -0.66164,1.96702 -0.85259,2.17488 -1.998,2.17488 -1.04559,0 -1.14062,-0.0653 -1.66178,-1.14187 -0.30403,-0.62802 -0.55277,-1.33266 -0.55277,-1.56586 0,-0.59679 -0.28168,-1.26102 -0.53476,-1.26102 -0.11746,0 -0.64267,0.41672 -1.16713,0.92605 -0.79962,0.77653 -1.14352,0.92604 -2.13007,0.92604 -1.47691,0 -1.80322,-0.51206 -1.68043,-2.63703 0.0661,-1.14299 0.005,-1.49795 -0.2423,-1.40267 -0.1819,0.0702 -0.33073,0.21975 -0.33073,0.33243 0,0.34254 -2.40376,0.83395 -3.21151,0.65654 -0.72563,-0.15938 -0.75724,-0.22949 -0.75724,-1.67988 0,-0.83246 0.13897,-1.65253 0.30883,-1.82239 0.41693,-0.41693 -0.0235,-0.55809 -2.02862,-0.65016 l -1.5875,-0.0729 -0.08464,-1.03448 c -0.05975,-0.73024 0.07643,-1.25233 0.463021,-1.77522 0.301209,-0.40742 0.547659,-0.86464 0.547659,-1.01605 0,-0.15141 0.12609,-0.2753 0.2802,-0.2753 0.15411,0 0.20661,-0.11906 0.11668,-0.26458 -0.0899,-0.14552 -0.66251,-0.26621 -1.27239,-0.2682 -1.6645,-0.005 -2.236093,-0.23694 -2.422936,-0.98138 -0.299387,-1.19285 0.09191,-2.06802 1.344116,-3.00626 l 1.196198,-0.89628 -0.576287,-0.46665 c -0.316958,-0.25665 -0.772673,-0.46665 -1.0127,-0.46665 -0.842309,0 -1.886214,-1.27105 -1.886214,-2.29664 0,-1.13103 0.558909,-1.65168 1.785938,-1.66369 0.61595,-0.006 0.859895,-0.13109 0.859895,-0.44084 0,-0.37204 -0.261307,-0.41373 -1.871028,-0.29856 -1.029065,0.0736 -2.005378,0.26822 -2.169583,0.43243 -0.164205,0.1642 -0.511127,0.29855 -0.770938,0.29855 -0.819003,0 -3.449574,1.54274 -5.448846,3.19556 -1.935474,1.60008 -2.164731,2.09611 -0.968781,2.09611 0.441906,0 0.643186,0.14621 0.637429,0.46302 -0.01496,0.82301 -0.716107,1.43013 -1.823082,1.57861 -0.880474,0.11809 -1.07892,0.0653 -1.07892,-0.287 0,-0.23744 -0.06524,-0.43171 -0.144983,-0.43171 -0.252933,0 -1.425439,1.44208 -1.434156,1.76389 -0.0046,0.16977 -0.112164,0.34836 -0.239035,0.39687 -0.126871,0.0485 -0.47558,0.62398 -0.774909,1.27882 l -0.544234,1.19063 0.658243,0.0852 c 0.896975,0.11614 1.025375,0.62432 0.473686,1.87475 -0.403737,0.9151 -0.592394,1.06677 -1.412457,1.13559 -1.040716,0.0873 -1.025767,0.0487 -1.874659,4.84194 -0.683448,3.85903 -0.789354,4.64058 -0.955915,7.05427 -0.155557,2.25422 -0.10374,2.778 0.438427,4.43177 0.338159,1.03148 0.712182,1.87541 0.831163,1.87541 0.118981,0 0.216329,0.12475 0.216329,0.27722 0,0.60357 3.009264,2.89778 3.800957,2.89778 0.204539,0 0.71292,0.17786 1.129737,0.39525 0.416816,0.21738 1.234098,0.40435 1.816181,0.41547 0.582083,0.0111 1.296458,0.12255 1.5875,0.24762 0.727394,0.31257 8.330092,0.32282 9.71964,0.0131 z m 0.284114,-1.23969 c -0.309336,-0.80612 0.294064,-1.28253 1.731309,-1.36693 1.29825,-0.0762 1.36181,-0.049 1.36181,0.58288 0,0.54058 -0.18301,0.71367 -0.99219,0.93839 -1.387056,0.38521 -1.908587,0.34689 -2.100929,-0.15434 z m -10.787934,-0.61001 c -0.329955,-0.53388 0.09016,-1.53258 0.71514,-1.70005 0.329013,-0.0882 0.98516,-0.16192 1.458102,-0.16391 0.717614,-0.003 0.859226,0.0949 0.855845,0.5917 -0.0022,0.32742 -0.106566,0.75711 -0.23186,0.95486 -0.301878,0.47644 -2.541847,0.73061 -2.797227,0.3174 z m 5.813507,-1.59936 c -0.101394,-0.16406 -0.117899,-0.56306 -0.03668,-0.88668 0.201294,-0.80202 2.982251,-1.81019 3.357482,-1.21718 0.314496,0.49703 0.316441,1.30648 0.0031,1.30648 -0.135126,0 -0.409956,0.16428 -0.610733,0.36505 -0.501988,0.50199 -2.475785,0.8165 -2.713213,0.43233 z m -9.659535,-1.70452 c 0,-1.06384 0.572153,-1.73869 1.474107,-1.73869 0.499237,0 0.642559,0.13958 0.642559,0.62578 0,0.81672 -0.957101,2.02005 -1.606703,2.02005 -0.404403,0 -0.509963,-0.18777 -0.509963,-0.90714 z m 17.731651,0.31183 c 0.008,-1.06641 1.79886,-2.3151 3.31995,-2.3151 1.05765,0 0.8524,1.11357 -0.38603,2.09443 -1.31696,1.04305 -2.94117,1.16521 -2.93392,0.22067 z m 5.55168,-0.0641 c 0,-0.86848 0.99472,-1.98639 1.76751,-1.98639 0.50555,0 0.61374,0.13993 0.61374,0.79375 0,0.9672 -0.82168,1.85208 -1.71979,1.85208 -0.52863,0 -0.66146,-0.13242 -0.66146,-0.65944 z m -14.375693,-2.69195 c -0.346242,-0.34624 -0.16804,-1.33665 0.319962,-1.77828 0.272993,-0.24706 0.927837,-0.51922 1.455208,-0.6048 0.925474,-0.15018 0.958858,-0.12767 0.958858,0.64664 0,0.63883 -0.191698,0.91534 -0.941165,1.35753 -0.973265,0.57424 -1.488618,0.68316 -1.792863,0.37891 z m 5.644444,-1.41111 c 0,-0.52916 0.132292,-0.79375 0.396875,-0.79375 0.218282,0 0.396875,-0.10741 0.396875,-0.2387 0,-0.24974 1.407189,-0.81963 2.023859,-0.81963 0.2154,0 0.35739,0.29558 0.35739,0.74399 0,0.92609 -1.21622,1.90184 -2.370535,1.90184 -0.71746,0 -0.804464,-0.0858 -0.804464,-0.79375 z m 10.318749,-0.53621 c 0,-1.10576 1.40811,-2.63879 2.42376,-2.63879 0.9003,0 1.00901,0.67713 0.28822,1.79514 -0.85456,1.3255 -1.23801,1.64445 -1.97703,1.64445 -0.64166,0 -0.73495,-0.10165 -0.73495,-0.8008 z m -27.976762,-1.2163 c 0.146876,-1.30308 0.476757,-1.67652 1.486695,-1.68302 0.59273,-0.004 0.621622,0.0678 0.491833,1.2193 -0.146876,1.30307 -0.476757,1.67652 -1.486694,1.68302 -0.592731,0.004 -0.621623,-0.0678 -0.491834,-1.2193 z m 7.078732,0.66265 c 0.0062,-0.9635 0.309242,-1.25061 1.525232,-1.44506 1.062745,-0.16994 1.11655,-0.1466 1.11655,0.48434 0,0.83124 -0.482075,1.23952 -1.696183,1.43655 -0.867768,0.14082 -0.949301,0.0998 -0.945599,-0.47583 z m -3.443635,-2.33727 c 0,-0.62237 0.54574,-1.92126 0.920656,-2.19121 0.148483,-0.10691 0.53786,-0.19621 0.865282,-0.19844 0.773255,-0.005 0.791221,0.80713 0.04457,2.01524 -0.638325,1.03283 -1.830504,1.27668 -1.830504,0.37441 z m 9.260417,-0.44513 c 0,-0.98302 1.121146,-1.94857 2.26259,-1.94857 1.251298,0 1.220409,0.76593 -0.07392,1.83282 -1.264505,1.04231 -2.188674,1.09119 -2.188674,0.11575 z m 10.318748,-0.42992 c 0,-0.89752 1.19499,-2.04782 2.12738,-2.04782 1.00965,0 1.04732,0.70365 0.0981,1.83179 -0.86929,1.03309 -2.22544,1.16473 -2.22544,0.21603 z m -14.287498,-1.66408 c 0,-1.01326 1.423525,-2.76499 2.246942,-2.76499 0.942361,0 0.675947,2.03132 -0.371931,2.83586 -0.620459,0.47637 -1.875011,0.42895 -1.875011,-0.0709 z m 8.731249,-0.25144 c 0,-0.88076 0.887929,-1.72541 2.004229,-1.90656 0.84292,-0.13679 0.90619,-0.0976 0.90619,0.56165 0,0.92442 -1.16226,2.00636 -2.155304,2.00636 -0.629067,0 -0.755115,-0.11041 -0.755115,-0.66145 z m -15.874999,-1.92094 c 0,-1.22372 1.011123,-2.44469 2.024528,-2.44469 0.638929,0 0.669246,0.0584 0.4997,0.96213 -0.244491,1.30325 -1.150944,2.47745 -1.912527,2.47745 -0.530761,0 -0.611701,-0.13164 -0.611701,-0.99489 z m 6.085416,-2.59733 c 0,-0.40081 0.318756,-1.00057 0.773398,-1.45521 0.993961,-0.99396 2.137019,-1.06472 2.137019,-0.13229 0,0.36312 -0.352993,0.9941 -0.814103,1.4552 -1.043987,1.04399 -2.096314,1.1104 -2.096314,0.1323 z m 6.35,0.15264 c 0,-0.76759 1.510594,-2.11667 2.370083,-2.11667 0.774591,0 0.72873,1.31827 -0.07203,2.07055 -0.817847,0.76833 -2.298052,0.79803 -2.298052,0.0461 z m -9.260416,-4.4752 c 0,-1.08739 1.564929,-2.66855 2.641159,-2.66855 1.189962,0 1.093131,1.06383 -0.218636,2.40203 -1.299727,1.32592 -2.422523,1.44944 -2.422523,0.26652 z m 7.9375,-1.40336 c 0,-0.83703 1.22182,-1.79436 2.290111,-1.79436 0.73751,0 0.884888,0.0978 0.884888,0.58689 0,0.83704 -1.22182,1.79436 -2.290111,1.79436 -0.73751,0 -0.884888,-0.0977 -0.884888,-0.58689 z m -3.131959,-5.25293 c 0.118751,-0.82484 1.957342,-2.07756 3.065813,-2.08889 0.765781,-0.008 0.858986,0.0708 0.851581,0.71882 -0.01123,0.98256 -1.060482,1.7069 -2.700863,1.86452 -1.24738,0.11986 -1.301789,0.0978 -1.216531,-0.49445 z m 24.646677,14.28671 c 0.12616,-0.49844 0.21564,-1.35275 0.19885,-1.89845 -0.0267,-0.8674 0.0452,-0.99089 0.57118,-0.98187 0.39959,0.007 0.89338,0.40681 1.46999,1.19063 0.86032,1.16948 1.62169,1.6351 1.17288,0.71728 -0.12452,-0.25466 -0.51401,-1.0881 -0.86552,-1.85208 -0.35151,-0.76398 -0.73006,-1.38906 -0.84123,-1.38906 -0.11117,0 -0.20212,-0.11065 -0.20212,-0.24588 0,-0.13523 -0.48667,-0.97857 -1.08149,-1.87409 -1.11206,-1.67424 -1.24969,-2.76528 -0.37261,-2.9539 0.29126,-0.0626 0.12057,-0.40399 -0.63814,-1.27613 l -1.03576,-1.19063 -0.89599,0.8599 c -0.98164,0.94209 -1.55665,1.07124 -2.06143,0.46302 -0.18115,-0.21828 -0.46772,-0.39688 -0.6368,-0.39688 -0.50064,0 -1.21528,-1.46319 -1.21528,-2.48822 0,-0.66926 0.11768,-0.95136 0.39688,-0.95136 0.21828,0 0.39687,-0.11906 0.39687,-0.26458 0,-0.14552 0.17859,-0.26459 0.39688,-0.26459 0.21828,0 0.39609,-0.14882 0.39513,-0.33073 -0.002,-0.37915 -0.71855,-1.50335 -1.36105,-2.13533 -0.38284,-0.37658 -0.47664,-0.38153 -0.76,-0.0401 -0.54002,0.65069 -1.20002,0.44553 -2.54566,-0.7913 -2.52716,-2.32281 -3.40619,-3.04035 -3.73207,-3.0464 -0.1819,-0.003 -0.33073,-0.11355 -0.33073,-0.24484 0,-0.13128 -0.3794,-0.37096 -0.8431,-0.5326 l -0.84311,-0.29391 0.64467,0.71963 c 0.35457,0.3958 0.91256,0.94177 1.23998,1.21327 0.32742,0.2715 0.59531,0.71865 0.59531,0.99367 0,0.44816 -0.25003,0.50793 -2.41006,0.57611 l -2.410066,0.0761 1.285585,0.67641 c 0.707071,0.37202 1.970191,0.90269 2.806941,1.17927 1.09941,0.36339 1.52135,0.63442 1.52135,0.97723 0,0.26091 -0.17859,0.47438 -0.39687,0.47438 -0.21829,0 -0.39688,0.11906 -0.39688,0.26458 0,0.14552 -0.15921,0.26458 -0.3538,0.26458 -0.19459,0 -1.04517,0.49508 -1.89018,1.10018 -1.445677,1.03522 -1.506792,1.12237 -1.035259,1.4762 0.349493,0.26225 0.881379,0.32965 1.757889,0.22274 0.69122,-0.0843 1.85208,-0.22796 2.57968,-0.31924 l 1.32292,-0.16595 v 0.82741 c 0,0.51518 -0.13379,0.82741 -0.35454,0.82741 -0.37477,0 -3.69227,3.18514 -3.5087,3.36871 0.059,0.059 0.80354,-0.0333 1.65453,-0.20506 3.15871,-0.63762 3.0027,-0.64009 3.00004,0.0475 -0.001,0.34394 -0.29526,1.22065 -0.65318,1.94826 -0.83227,1.69188 -0.84734,2.07601 -0.072,1.83494 0.32742,-0.1018 0.635,-0.28842 0.6835,-0.41471 0.0485,-0.12628 0.19385,-0.22961 0.32298,-0.22961 0.12913,0 0.80381,-0.53376 1.4993,-1.18614 1.62368,-1.52303 2.19057,-1.56246 2.19057,-0.15239 0,0.5735 -0.10532,1.10781 -0.23405,1.18737 -0.12873,0.0796 -0.31184,0.71167 -0.4069,1.40468 -0.0951,0.69301 -0.23732,1.58745 -0.31613,1.98763 -0.0922,0.46835 -0.0304,0.7276 0.17344,0.7276 0.37799,0 2.09211,-1.68734 2.75502,-2.71198 0.33437,-0.51683 0.69184,-0.7276 1.23405,-0.7276 0.70386,0 0.76332,0.0763 0.76332,0.9791 0,1.26853 0.83429,4.07857 1.177,3.96433 0.14553,-0.0485 0.36782,-0.49602 0.49397,-0.99446 z m -2.52688,-13.60626 c 0.66422,-0.65484 1.29862,-1.19063 1.40977,-1.19063 0.11115,0 0.36445,-0.14882 0.56289,-0.33073 0.50343,-0.46146 1.28068,-0.9438 2.05287,-1.27395 0.36084,-0.15428 0.71802,-0.36643 0.79375,-0.47146 0.0757,-0.10502 0.76275,-0.48287 1.52673,-0.83966 1.67173,-0.78071 1.75218,-1.23445 0.45559,-2.56952 -0.89644,-0.92303 -0.94786,-0.94088 -1.29576,-0.4499 -0.19926,0.28119 -0.58286,0.76805 -0.85246,1.0819 -0.2696,0.31385 -0.66877,0.83443 -0.88705,1.15685 -0.3966,0.58581 -1.46807,1.86362 -2.56706,3.06141 -0.32047,0.34929 -0.70742,0.63506 -0.85989,0.63506 -0.15247,0 -0.27722,0.11145 -0.27722,0.24766 0,0.13621 -0.47378,0.51393 -1.05285,0.83939 -0.82014,0.46094 -0.98842,0.66937 -0.76135,0.94297 0.40581,0.48898 0.40351,0.49008 1.75204,-0.83939 z"
       id="path1" /></g></svg>
